<svg id="그룹_9577" data-name="그룹 9577" xmlns="http://www.w3.org/2000/svg" width="273" height="110.954" viewBox="0 0 273 110.954">
  <path id="패스_42782" data-name="패스 42782" d="M402.352,194.768l.327-.006Z" transform="translate(-209.362 -101.344)" fill="#3379f5"/>
  <g id="그룹_9362" data-name="그룹 9362">
    <g id="그룹_9364" data-name="그룹 9364">
      <g id="그룹_9366" data-name="그룹 9366">
        <path id="패스_42797" data-name="패스 42797" d="M229.75,40.475c.136,6.876-3.2,11.647-9.828,13.888a31.531,31.531,0,0,1-29.112-3.9l1.931-1.906a29.214,29.214,0,0,0,3.638,2.206,29.626,29.626,0,0,0,21.561,1.657,23.417,23.417,0,0,0,3.115-1.17,10.626,10.626,0,0,0,3.214-2.293,9.6,9.6,0,0,0,2.043-2.952,9.3,9.3,0,0,0,.834-3.065l.013-.023a13.023,13.023,0,0,0,.1-1.953,12.516,12.516,0,0,0-1.085-5.021,10.953,10.953,0,0,0-2.892-3.134,11.238,11.238,0,0,0-3.778-1.789,24.09,24.09,0,0,0-4.036-.884c-.548-.075-1.743-.162-1.743-.162l-7.6-.361V29.6a13.271,13.271,0,0,1-3.813-.823,5.486,5.486,0,0,1-3.574-5.629.714.714,0,0,0,.025-.138,3.621,3.621,0,0,1,1.145-2.093c2.206-2.043,5.021-2.638,7.973-2.827,3.786-.212,7.287-.2,10.888,1.145,1.37.525,2.952,1.32,4.372,1.993l-2.079,2.081s-.511-.311-.9-.511c-4.758-2.429-9.679-2.579-14.686-1.693a8.326,8.326,0,0,0-2.329.884,2.212,2.212,0,0,0-1.234,2.379,2.561,2.561,0,0,0,1.657,2c1.22.672,2.479.722,4.683.8,1.007.013,2.678-.036,4.01-.025a26.122,26.122,0,0,1,6.366.761,17.079,17.079,0,0,1,5.667,2.529,12.118,12.118,0,0,1,5.456,10.039" transform="translate(-99.287 -9.362)" fill="#3379f5"/>
        <path id="패스_42798" data-name="패스 42798" d="M197.6,19.746a8.343,8.343,0,0,0,2.83,6.146,9.258,9.258,0,0,0,3.6,2.217,25.088,25.088,0,0,0,6.715,1.147c3.6.192,7.239.179,10.2,1.184a9.341,9.341,0,0,1,3.525,2.168c2.318,2.59,1.568,7.6-2.164,10.012-4.322,2.616-9.457,2.083-14.054,1.5a23.9,23.9,0,0,1-8.944-3.369l-.119.134-1.9,1.852c5.756,4.384,18.8,5.982,25.808,2.406a13.634,13.634,0,0,0,3.063-2.266,9.447,9.447,0,0,0,1.722-2.446,8.381,8.381,0,0,0,.9-3.48,13.344,13.344,0,0,0-.219-2.467,7.245,7.245,0,0,0-2.134-3.876,18.971,18.971,0,0,0-1.714-1.447c-.2-.125-.4-.236-.6-.35-2.915-1.618-6.092-1.745-9.319-1.845-3.1-.086-6.914-.267-9.268-1.232a12.376,12.376,0,0,1-3.151-1.795,6.621,6.621,0,0,1-1.234-7.466c.922-1.981,2.885-3.025,4.808-3.707a22.816,22.816,0,0,1,8.234-1.261,23.9,23.9,0,0,1,5.953.949,35.693,35.693,0,0,1,7.462,3.015l1.981-1.957v-.006a20.95,20.95,0,0,0-3.077-1.7,32.69,32.69,0,0,0-10.033-2.7,26.071,26.071,0,0,0-2.71-.119,27.369,27.369,0,0,0-5.271.473,32.434,32.434,0,0,0-4.109,1.059,11.3,11.3,0,0,0-5.265,3.9,7.167,7.167,0,0,0-1.391,3.321,14.151,14.151,0,0,0-.137,2" transform="translate(-102.66 -4.678)" fill="#3379f5"/>
        <path id="패스_42799" data-name="패스 42799" d="M238.012,36.787c-.115-.006-.231-.013-.346-.017.115,0,.23.012.346.017" transform="translate(-123.669 -19.133)" fill="#3379f5"/>
        <path id="패스_42800" data-name="패스 42800" d="M227.893,37.122" transform="translate(-118.583 -19.316)" fill="#3379f5"/>
        <path id="패스_42801" data-name="패스 42801" d="M265.709,68.729c.061-.254.123-.509.187-.763-.063.256-.125.509-.187.763" transform="translate(-138.261 -35.366)" fill="#3379f5"/>
        <path id="패스_42802" data-name="패스 42802" d="M253.236,50.3l.6.352Z" transform="translate(-131.77 -26.174)" fill="#3379f5"/>
        <path id="패스_42803" data-name="패스 42803" d="M196.055,34.9l-.021.029a20.68,20.68,0,0,0,2.561,1.416,29.285,29.285,0,0,0,17.126.759,7.108,7.108,0,0,0,1.793-1.069,4.681,4.681,0,0,0,1.722-2.494,4.973,4.973,0,0,0-.352-3.909,4.343,4.343,0,0,0-2.219-1.914c-.446-.173-1.391-.405-1.391-.405a19.693,19.693,0,0,0-4.869-.582,53.7,53.7,0,0,1-8.719-.747,17.572,17.572,0,0,1-4.549-1.7,10.588,10.588,0,0,1-2.291-1.727,9.786,9.786,0,0,1-3.244-7.956A9.681,9.681,0,0,1,194.1,8c3.2-3.538,7.036-4.643,11.636-5.317a29.594,29.594,0,0,1,4.969-.1s1.193.008,1.874.084a29.017,29.017,0,0,1,13.41,4.787,3.852,3.852,0,0,0,.35.223l1.856-1.818A38.689,38.689,0,0,0,224.45,3.71a32.915,32.915,0,0,0-15.789-3.7,25.062,25.062,0,0,0-12,2.629c-5.494,2.878-8.346,7.249-7.812,13.713.486,5.681,3.824,8.994,8.657,11.05a28.329,28.329,0,0,0,11.411,1.818,46.349,46.349,0,0,1,5.567.336,2.329,2.329,0,0,1,2.095,2.095c.152,1.989-.605,2.827-2.485,3.25a25.466,25.466,0,0,1-15.416-1.37,6.617,6.617,0,0,1-.8-.415L196.055,34.9" transform="translate(-98.236 -0.006)" fill="#3379f5"/>
        <path id="패스_42804" data-name="패스 42804" d="M67.4,2.186,53.2,30.749V47H50.556V30.114l.386-.772L64.432,2.187Z" transform="translate(-26.307 -1.138)" fill="#3379f5"/>
        <path id="패스_42805" data-name="패스 42805" d="M77.109,2.186,62.921,30.726v16.28H60.267V30.114l.386-.772L74.144,2.187Z" transform="translate(-31.36 -1.138)" fill="#3379f5"/>
        <rect id="사각형_738" data-name="사각형 738" width="2.654" height="44.818" transform="translate(48.556 1.049)" fill="#3379f5"/>
        <rect id="사각형_739" data-name="사각형 739" width="2.654" height="44.818" transform="translate(53.016 1.049)" fill="#3379f5"/>
        <rect id="사각형_740" data-name="사각형 740" width="2.654" height="44.818" transform="translate(57.477 1.049)" fill="#3379f5"/>
        <rect id="사각형_741" data-name="사각형 741" width="2.654" height="44.818" transform="translate(61.937 1.049)" fill="#3379f5"/>
        <rect id="사각형_742" data-name="사각형 742" width="21.452" height="2.654" transform="translate(64.591 1.048)" fill="#3379f5"/>
        <rect id="사각형_743" data-name="사각형 743" width="21.452" height="2.654" transform="translate(64.591 5.449)" fill="#3379f5"/>
        <rect id="사각형_744" data-name="사각형 744" width="21.452" height="2.654" transform="translate(64.591 9.849)" fill="#3379f5"/>
        <rect id="사각형_745" data-name="사각형 745" width="21.452" height="2.654" transform="translate(64.591 17.804)" fill="#3379f5"/>
        <rect id="사각형_746" data-name="사각형 746" width="21.452" height="2.654" transform="translate(64.591 22.225)" fill="#3379f5"/>
        <rect id="사각형_747" data-name="사각형 747" width="21.452" height="2.654" transform="translate(64.591 26.625)" fill="#3379f5"/>
        <rect id="사각형_748" data-name="사각형 748" width="21.452" height="2.654" transform="translate(64.591 34.394)" fill="#3379f5"/>
        <rect id="사각형_749" data-name="사각형 749" width="21.452" height="2.654" transform="translate(64.591 38.813)" fill="#3379f5"/>
        <rect id="사각형_750" data-name="사각형 750" width="21.452" height="2.654" transform="translate(64.591 43.214)" fill="#3379f5"/>
        <path id="패스_42806" data-name="패스 42806" d="M57.678,2.187C54.824,7.939,46.186,25.3,43.48,30.749V47H40.826V30.115c.09-.185.29-.6.386-.773,3.158-6.37,10.254-20.608,13.5-27.156Z" transform="translate(-21.244 -1.138)" fill="#3379f5"/>
        <rect id="사각형_751" data-name="사각형 751" width="27.276" height="2.31" transform="translate(149.053 37.041)" fill="#3379f5"/>
        <rect id="사각형_752" data-name="사각형 752" width="27.276" height="2.31" transform="translate(149.053 40.819)" fill="#3379f5"/>
        <rect id="사각형_753" data-name="사각형 753" width="27.276" height="2.31" transform="translate(149.053 44.598)" fill="#3379f5"/>
        <rect id="사각형_754" data-name="사각형 754" width="31.225" height="2.31" transform="translate(181.647 29.492)" fill="#3379f5"/>
        <path id="패스_42807" data-name="패스 42807" d="M517.5,5.268l-.564,2.31H501V5.268Z" transform="translate(-260.692 -2.741)" fill="#3379f5"/>
        <path id="패스_42808" data-name="패스 42808" d="M538.012,8.775V8.82l-.141.584h-.011Z" transform="translate(-279.873 -4.566)" fill="#3379f5"/>
        <path id="패스_42809" data-name="패스 42809" d="M516.656,12.416l-.561,2.309H501V12.416Z" transform="translate(-260.695 -6.461)" fill="#3379f5"/>
        <path id="패스_42810" data-name="패스 42810" d="M536.095,14.722l.563-2.31.012,0-.564,2.31Z" transform="translate(-278.955 -6.459)" fill="#3379f5"/>
        <path id="패스_42811" data-name="패스 42811" d="M515.819,19.558l-.563,2.31H501v-2.31Z" transform="translate(-260.693 -10.177)" fill="#3379f5"/>
        <path id="패스_42812" data-name="패스 42812" d="M534.905,19.558l-.563,2.31h-.012Z" transform="translate(-278.037 -10.177)" fill="#3379f5"/>
        <path id="패스_42813" data-name="패스 42813" d="M529.507,5.268,518.6,49.644h-2.31l8.665-35.215.565-2.308h.01l.271-1.116.565-2.31.271-1.117h.01l.144-.586.423-1.724Z" transform="translate(-268.649 -2.741)" fill="#3379f5"/>
        <path id="패스_42814" data-name="패스 42814" d="M524.948,21.867l.576-2.31-.563,2.31L516.3,57.081Z" transform="translate(-268.653 -10.177)" fill="#3379f5"/>
        <path id="패스_42815" data-name="패스 42815" d="M536.367,11.2l.282-1.116-.271,1.116-.565,2.31-.271,1.117h-.01l.271-1.117Z" transform="translate(-278.663 -5.249)" fill="#3379f5"/>
        <path id="패스_42816" data-name="패스 42816" d="M538.435,5.268l-.423,1.724-.14.586h-.012l.152-.628.411-1.682Z" transform="translate(-279.873 -2.741)" fill="#3379f5"/>
        <path id="패스_42817" data-name="패스 42817" d="M525.522,19.558l-.563,2.31L516.3,57.082l8.651-35.215Z" transform="translate(-268.653 -10.177)" fill="#3379f5"/>
        <path id="패스_42818" data-name="패스 42818" d="M536.647,10.086l-.271,1.117-.563,2.31-.271,1.116h-.011l.271-1.116.563-2.31Z" transform="translate(-278.661 -5.248)" fill="#3379f5"/>
        <path id="패스_42819" data-name="패스 42819" d="M538.435,5.268l-.423,1.724-.14.586h-.012l.152-.628.411-1.682Z" transform="translate(-279.873 -2.741)" fill="#3379f5"/>
        <path id="패스_42820" data-name="패스 42820" d="M535.632,5.26h2.31L527.029,49.642h-2.31Z" transform="translate(-273.035 -2.737)" fill="#3379f5"/>
        <path id="패스_42821" data-name="패스 42821" d="M544.07,5.26h2.309L535.466,49.642h-2.31Z" transform="translate(-277.426 -2.737)" fill="#3379f5"/>
        <path id="패스_42822" data-name="패스 42822" d="M552.505,5.26h2.31L543.9,49.642h-2.31Z" transform="translate(-281.815 -2.737)" fill="#3379f5"/>
        <path id="패스_42823" data-name="패스 42823" d="M461.007,2.17h2.31L451.07,51.52h-2.308Z" transform="translate(-233.511 -1.129)" fill="#3379f5"/>
        <path id="패스_42824" data-name="패스 42824" d="M468.884,2.17h2.309L458.949,51.52h-2.308Z" transform="translate(-237.611 -1.129)" fill="#3379f5"/>
        <path id="패스_42825" data-name="패스 42825" d="M476.76,2.17h2.31L466.825,51.52h-2.308Z" transform="translate(-241.71 -1.129)" fill="#3379f5"/>
        <rect id="사각형_755" data-name="사각형 755" width="2.31" height="7.871" transform="translate(203.787 20.624)" fill="#3379f5"/>
        <rect id="사각형_756" data-name="사각형 756" width="2.31" height="6.559" transform="translate(203.787 40.346)" fill="#3379f5"/>
        <path id="패스_42826" data-name="패스 42826" d="M392.921,5.26l-11.9,25.968h-2.31l11.9-25.968Z" transform="translate(-197.059 -2.737)" fill="#3379f5"/>
        <path id="패스_42827" data-name="패스 42827" d="M401.671,5.26l-11.9,25.968h-2.31l11.9-25.968Z" transform="translate(-201.612 -2.737)" fill="#3379f5"/>
        <path id="패스_42828" data-name="패스 42828" d="M410.42,5.26l-11.9,25.968h-2.31L408.11,5.26Z" transform="translate(-206.165 -2.737)" fill="#3379f5"/>
        <path id="패스_42829" data-name="패스 42829" d="M419.17,5.26l-11.9,25.968h-2.31L416.86,5.26Z" transform="translate(-210.718 -2.737)" fill="#3379f5"/>
        <rect id="사각형_757" data-name="사각형 757" width="2.31" height="7.871" transform="translate(208.047 20.624)" fill="#3379f5"/>
        <rect id="사각형_758" data-name="사각형 758" width="2.31" height="6.559" transform="translate(208.047 40.346)" fill="#3379f5"/>
        <rect id="사각형_759" data-name="사각형 759" width="31.225" height="2.31" transform="translate(181.647 33.266)" fill="#3379f5"/>
        <rect id="사각형_760" data-name="사각형 760" width="31.225" height="2.31" transform="translate(181.647 37.039)" fill="#3379f5"/>
        <path id="패스_42830" data-name="패스 42830" d="M335.218,25.535c-2.233,4.3-6.949,10.9-9.488,14.342h-2.7c2.017-2.71,7.808-10.6,10.258-15.341a11.216,11.216,0,0,0,.542-8.663,7.339,7.339,0,0,0-3.914-3.947,14.266,14.266,0,0,0-6.907-1.593,33.9,33.9,0,0,0-9.032,1.041l-.736-2.039a36.692,36.692,0,0,1,9.785-1.065,16.331,16.331,0,0,1,7.854,1.714,9.541,9.541,0,0,1,4.988,5.14,13.43,13.43,0,0,1-.651,10.408" transform="translate(-162.994 -4.303)" fill="#3379f5"/>
        <path id="패스_42831" data-name="패스 42831" d="M338.677,20.993c-.965,2.31-5.594,8.955-9.649,14.581H326.35c4.543-6.267,9.624-13.67,10.475-15.856a14.467,14.467,0,0,0,.336-6.949A12.511,12.511,0,0,0,335.3,7.781c-1.6-2.291-5.429-5.642-13.782-5.612-5.975.021-9.314,1.388-9.943,1.668l-.726-2.049A27.373,27.373,0,0,1,321.514,0c10.917,0,15.049,4.547,16.5,8.033.4.959,3.015,7.31.663,12.958" transform="translate(-161.747)" fill="#3379f5"/>
        <path id="패스_42832" data-name="패스 42832" d="M332.37,28.845c-1.184,2.775-6.974,10.831-10.106,15.124h-2.7c2.7-3.663,9.593-13.143,10.809-15.981,1.107-2.59,1.381-4.724.7-6.451a4.212,4.212,0,0,0-2.35-2.429,15.992,15.992,0,0,0-5.771-.8,25.5,25.5,0,0,0-6.34.694l-.74-2.06a27.436,27.436,0,0,1,7.08-.8,19.63,19.63,0,0,1,6.505.932,5.737,5.737,0,0,1,3.655,3.718c.836,2.287.6,4.921-.736,8.056" transform="translate(-164.361 -8.394)" fill="#3379f5"/>
        <path id="패스_42833" data-name="패스 42833" d="M325.493,34.565c-2.31,3.221-7.156,10.181-9.4,13.423h-2.644c1.5-2.169,7.589-10.952,10.289-14.691,2.126-2.959,2.439-4.468,2.331-5.215a2.1,2.1,0,0,0-1.355-1.7,12.057,12.057,0,0,0-4.164-.313,21.388,21.388,0,0,0-3.913.584l-.728-2.049a22.5,22.5,0,0,1,4.5-.705,13.515,13.515,0,0,1,5.106.48,4.169,4.169,0,0,1,2.667,3.23l.033.152c.261,1.712-.607,3.87-2.721,6.809" transform="translate(-163.101 -12.413)" fill="#3379f5"/>
        <line id="선_35" data-name="선 35" x1="0.727" y1="2.049" transform="translate(149.099 1.792)" fill="#3379f5"/>
        <line id="선_36" data-name="선 36" x1="0.738" y1="2.039" transform="translate(150.248 5.033)" fill="#3379f5"/>
        <line id="선_37" data-name="선 37" x1="0.738" y1="2.06" transform="translate(151.505 8.546)" fill="#3379f5"/>
        <path id="패스_42834" data-name="패스 42834" d="M318.579,25.411l.726,2.049.1.261" transform="translate(-165.771 -13.223)" fill="#3379f5"/>
        <path id="패스_42835" data-name="패스 42835" d="M12.041,2.193H9.092l12.12,24.788-.162.33L22.7,23.988Z" transform="translate(-4.731 -1.141)" fill="#3379f5"/>
        <path id="패스_42836" data-name="패스 42836" d="M21.258,2.193H18.306l9.935,20.3L29.728,19.5Z" transform="translate(-9.525 -1.141)" fill="#3379f5"/>
        <path id="패스_42837" data-name="패스 42837" d="M35.285,18,27.55,2.2H30.5l6.265,12.818-1.482,3.005" transform="translate(-14.335 -1.142)" fill="#3379f5"/>
        <path id="패스_42838" data-name="패스 42838" d="M15.279,29.391l.463-.932L2.89,2.18C2.711,2.209.071,2.087,0,2.3L14.907,32.791V30.15Z" transform="translate(0 -1.13)" fill="#3379f5"/>
        <path id="패스_42839" data-name="패스 42839" d="M31.078,66.009V79.65l.015-.049V66.041Z" transform="translate(-16.171 -34.348)" fill="#3379f5"/>
        <path id="패스_42840" data-name="패스 42840" d="M33.4,54.56l-.577,1.16,0,.006Z" transform="translate(-17.078 -28.39)" fill="#3379f5"/>
        <path id="패스_42841" data-name="패스 42841" d="M38.215,44.517l0-.008c-.258.519-.507,1.02-.744,1.5l0,.006Z" transform="translate(-19.496 -23.16)" fill="#3379f5"/>
        <path id="패스_42842" data-name="패스 42842" d="M42.867,35.148l0,0-.747,1.5,0,.007Z" transform="translate(-21.916 -18.288)" fill="#3379f5"/>
        <path id="패스_42843" data-name="패스 42843" d="M45.085,2.192h-.1l-3.91,7.856L37.121,18v0l-.745,1.507,0-.007-1.486,2.989,0,.008-.745,1.5,0-.005-1.652,3.323-.574,1.166,0-.005-.463.931-.373.759V32.8l.015.032V47.007h2.654V30.751l.373-.759c1.631-3.274,3.763-7.566,5.962-11.995C42.89,12.34,45.809,6.458,47.934,2.189Z" transform="translate(-16.171 -1.139)" fill="#3379f5"/>
      </g>
      <g id="그룹_9365" data-name="그룹 9365" transform="translate(8.368 66.128)">
        <path id="패스_42783" data-name="패스 42783" d="M154.365,193.645a22.413,22.413,0,1,1,22.412-22.414v0a22.438,22.438,0,0,1-22.412,22.412m0-42.4a19.991,19.991,0,1,0,19.99,19.992,19.991,19.991,0,0,0-19.99-19.992" transform="translate(-98.497 -148.819)" fill="#3379f5"/>
        <path id="패스_42784" data-name="패스 42784" d="M156.936,191.8a18,18,0,1,1,18-18v0a18.021,18.021,0,0,1-18,18m0-33.582a15.582,15.582,0,1,0,15.58,15.583h0a15.6,15.6,0,0,0-15.58-15.583" transform="translate(-101.068 -151.388)" fill="#3379f5"/>
        <path id="패스_42785" data-name="패스 42785" d="M159.278,190.128a13.985,13.985,0,1,1,13.985-13.985v0a14,14,0,0,1-13.985,13.982m0-25.548a11.562,11.562,0,1,0,11.562,11.565,11.562,11.562,0,0,0-11.562-11.565" transform="translate(-103.41 -153.731)" fill="#3379f5"/>
        <path id="패스_42786" data-name="패스 42786" d="M161.625,188.447a9.955,9.955,0,1,1,9.955-9.955v0a9.966,9.966,0,0,1-9.955,9.953m0-17.488a7.534,7.534,0,1,0,7.533,7.535,7.534,7.534,0,0,0-7.533-7.535" transform="translate(-105.758 -156.079)" fill="#3379f5"/>
        <path id="패스_42787" data-name="패스 42787" d="M231.314,193.651a22.409,22.409,0,1,1,17.529-36.369l-1.9,1.509a20,20,0,1,0,.091,24.767l1.906,1.491a22.246,22.246,0,0,1-17.627,8.6" transform="translate(-126.831 -148.824)" fill="#3379f5"/>
        <path id="패스_42788" data-name="패스 42788" d="M238.563,188.442a9.953,9.953,0,1,1,8.15-15.638l-1.99,1.377a7.514,7.514,0,1,0,.045,8.586l2,1.372a9.949,9.949,0,0,1-8.2,4.3" transform="translate(-134.08 -156.079)" fill="#3379f5"/>
        <path id="패스_42789" data-name="패스 42789" d="M233.88,191.813a18,18,0,1,1,14.2-29.063l-1.911,1.489a15.584,15.584,0,1,0,.073,19.037l1.924,1.473a17.863,17.863,0,0,1-14.279,7.062" transform="translate(-129.397 -151.393)" fill="#3379f5"/>
        <path id="패스_42790" data-name="패스 42790" d="M238.563,188.442a9.953,9.953,0,1,1,8.15-15.638l-1.99,1.377a7.514,7.514,0,1,0,.045,8.586l2,1.372a9.949,9.949,0,0,1-8.2,4.3" transform="translate(-134.08 -156.079)" fill="#3379f5"/>
        <path id="패스_42791" data-name="패스 42791" d="M236.218,190.123a13.989,13.989,0,1,1,11.188-22.377l-1.936,1.453a11.568,11.568,0,1,0,.043,13.811l1.949,1.438a14.025,14.025,0,0,1-11.246,5.675" transform="translate(-131.734 -153.725)" fill="#3379f5"/>
        <path id="패스_42792" data-name="패스 42792" d="M238.563,188.442a9.953,9.953,0,1,1,8.15-15.638l-1.99,1.377a7.514,7.514,0,1,0,.045,8.586l2,1.372a9.949,9.949,0,0,1-8.2,4.3" transform="translate(-134.08 -156.079)" fill="#3379f5"/>
        <rect id="사각형_714" data-name="사각형 714" width="2.415" height="41.872" transform="translate(138.84 1.473)" fill="#3379f5"/>
        <rect id="사각형_715" data-name="사각형 715" width="2.415" height="41.872" transform="translate(0 1.503)" fill="#3379f5"/>
        <rect id="사각형_716" data-name="사각형 716" width="2.415" height="41.872" transform="translate(4.167 1.503)" fill="#3379f5"/>
        <rect id="사각형_717" data-name="사각형 717" width="2.415" height="41.872" transform="translate(8.331 1.503)" fill="#3379f5"/>
        <rect id="사각형_718" data-name="사각형 718" width="2.415" height="41.872" transform="translate(12.497 1.503)" fill="#3379f5"/>
        <rect id="사각형_719" data-name="사각형 719" width="15.793" height="2.415" transform="translate(14.912 32.403)" fill="#3379f5"/>
        <rect id="사각형_720" data-name="사각형 720" width="15.793" height="2.415" transform="translate(14.912 36.684)" fill="#3379f5"/>
        <rect id="사각형_721" data-name="사각형 721" width="15.793" height="2.415" transform="translate(14.912 40.962)" fill="#3379f5"/>
        <rect id="사각형_722" data-name="사각형 722" width="2.415" height="41.872" transform="translate(134.544 1.473)" fill="#3379f5"/>
        <rect id="사각형_723" data-name="사각형 723" width="2.415" height="41.872" transform="translate(130.247 1.473)" fill="#3379f5"/>
        <rect id="사각형_724" data-name="사각형 724" width="2.415" height="41.872" transform="translate(125.952 1.473)" fill="#3379f5"/>
        <rect id="사각형_725" data-name="사각형 725" width="2.415" height="41.872" transform="translate(186.855 1.473)" fill="#3379f5"/>
        <rect id="사각형_726" data-name="사각형 726" width="19.947" height="2.415" transform="translate(189.271 1.473)" fill="#3379f5"/>
        <rect id="사각형_727" data-name="사각형 727" width="19.947" height="2.415" transform="translate(189.271 5.378)" fill="#3379f5"/>
        <rect id="사각형_728" data-name="사각형 728" width="19.947" height="2.415" transform="translate(189.271 9.285)" fill="#3379f5"/>
        <rect id="사각형_729" data-name="사각형 729" width="19.947" height="2.415" transform="translate(189.271 33.119)" fill="#3379f5"/>
        <rect id="사각형_730" data-name="사각형 730" width="19.947" height="2.415" transform="translate(189.271 37.026)" fill="#3379f5"/>
        <rect id="사각형_731" data-name="사각형 731" width="19.947" height="2.415" transform="translate(189.271 40.931)" fill="#3379f5"/>
        <rect id="사각형_732" data-name="사각형 732" width="19.114" height="2.415" transform="translate(189.271 17.297)" fill="#3379f5"/>
        <rect id="사각형_733" data-name="사각형 733" width="19.114" height="2.415" transform="translate(189.271 21.202)" fill="#3379f5"/>
        <rect id="사각형_734" data-name="사각형 734" width="19.114" height="2.415" transform="translate(189.271 25.107)" fill="#3379f5"/>
        <rect id="사각형_735" data-name="사각형 735" width="2.415" height="41.872" transform="translate(182.56 1.473)" fill="#3379f5"/>
        <rect id="사각형_736" data-name="사각형 736" width="2.415" height="41.872" transform="translate(178.265 1.473)" fill="#3379f5"/>
        <rect id="사각형_737" data-name="사각형 737" width="2.415" height="41.872" transform="translate(173.967 1.473)" fill="#3379f5"/>
        <path id="패스_42793" data-name="패스 42793" d="M315.818,193.189l-13.467-21.645,13.464-21.827,2.061,1.271L305.2,171.536l12.674,20.372Z" transform="translate(-161.238 -149.15)" fill="#3379f5"/>
        <path id="패스_42794" data-name="패스 42794" d="M323.665,193.189,310.2,171.544l13.464-21.827,2.061,1.271-12.676,20.549,12.674,20.372Z" transform="translate(-164.128 -149.15)" fill="#3379f5"/>
        <path id="패스_42795" data-name="패스 42795" d="M331.513,193.189l-13.464-21.645,13.464-21.827,2.06,1.271-12.681,20.549,12.674,20.372Z" transform="translate(-167.018 -149.15)" fill="#3379f5"/>
        <path id="패스_42796" data-name="패스 42796" d="M339.357,193.189,325.89,171.544l13.464-21.827,2.061,1.271-12.679,20.549,12.677,20.372Z" transform="translate(-169.905 -149.15)" fill="#3379f5"/>
        <path id="패스_42844" data-name="패스 42844" d="M477.7,210.829h-2.415L471.1,199.36h2.415Z" transform="translate(-223.37 -167.427)" fill="#3379f5"/>
        <path id="패스_42845" data-name="패스 42845" d="M470.813,210.829H468.4l-4.184-11.469h2.415Z" transform="translate(-220.835 -167.427)" fill="#3379f5"/>
        <path id="패스_42846" data-name="패스 42846" d="M463.933,210.829h-2.415l-4.184-11.469h2.415Z" transform="translate(-218.302 -167.427)" fill="#3379f5"/>
        <path id="패스_42847" data-name="패스 42847" d="M457.051,210.829h-2.415l-4.184-11.469h2.415Z" transform="translate(-215.768 -167.427)" fill="#3379f5"/>
        <path id="패스_42848" data-name="패스 42848" d="M433.61,167.693v.015l-.015-.015Z" transform="translate(-209.562 -155.769)" fill="#3379f5"/>
        <path id="패스_42849" data-name="패스 42849" d="M426.813,160.9v.015l-.015-.015Z" transform="translate(-207.059 -153.266)" fill="#3379f5"/>
        <path id="패스_42850" data-name="패스 42850" d="M436.507,177.431h14.434a5.5,5.5,0,0,0,4.486-2.341,5.428,5.428,0,0,0-.21-6.49l-.162-.226a5.481,5.481,0,0,0-4.293-2.068h-5.425v-.015H432.195l.018.015v31.4H429.79V163.884h20.971a6.312,6.312,0,0,1,.952.063,7.836,7.836,0,0,1,5.232,2.923l.178.226a7.84,7.84,0,0,1-4.991,12.641l-15.628.126Z" transform="translate(-208.161 -154.365)" fill="#3379f5"/>
        <path id="패스_42851" data-name="패스 42851" d="M455.672,172.031a3.883,3.883,0,0,0-2.4-1.327c-.048-.015-.114-.015-.162-.033H436.589V200.2h2.418V182.363l0-4.548h13.821v-.052a3.834,3.834,0,0,0,2.453-.985,3.375,3.375,0,0,0,.387-4.746m-1.98,2.939c-.013.011-.026.022-.04.032a1.553,1.553,0,0,1-1,.354h-8.313v.033h-5.327V173.1h13.836a1.419,1.419,0,0,1,.969.483.987.987,0,0,1-.121,1.391" transform="translate(-210.664 -156.865)" fill="#3379f5"/>
        <path id="패스_42852" data-name="패스 42852" d="M434.007,181.524h16.1a12.339,12.339,0,0,0,2.017-.466,12.763,12.763,0,0,0,6.444-4.569,11.678,11.678,0,0,0-.468-14.5l-.291-.354a12.916,12.916,0,0,0-7.829-4.407c-.372-.063-.742-.114-1.132-.147H422.989V195.2h2.422V159.5l-.016-.015h22.924a10.568,10.568,0,0,1,7.621,3.7l.306.372a9.16,9.16,0,0,1,.372,11.494,10.6,10.6,0,0,1-6.685,4.052H434Z" transform="translate(-205.657 -151.862)" fill="#3379f5"/>
        <path id="패스_42853" data-name="패스 42853" d="M431.507,183.193h14.127a20.037,20.037,0,0,0,5.6-.758,15.882,15.882,0,0,0,7.847-25.588l-.438-.5a18.178,18.178,0,0,0-11.252-5.893,13.522,13.522,0,0,0-1.58-.159H416.2v42.412h2.4V152.695h27.027a15.928,15.928,0,0,1,11.17,5.229l.42.5a13.156,13.156,0,0,1,.565,16.726c-2.759,3.68-6.956,5.617-12.155,5.617H431.509Z" transform="translate(-203.159 -149.363)" fill="#3379f5"/>
      </g>
    </g>
  </g>
</svg>
