<svg id="그룹_9363" data-name="그룹 9363" xmlns="http://www.w3.org/2000/svg" width="662" height="269.054" viewBox="0 0 662 269.054">
  <path id="패스_42782" data-name="패스 42782" d="M402.352,194.776l.792-.014Z" transform="translate(65.631 31.769)" fill="#3379f5"/>
  <g id="그룹_9362" data-name="그룹 9362">
    <g id="그룹_9364" data-name="그룹 9364">
      <g id="그룹_9366" data-name="그룹 9366">
        <path id="패스_42797" data-name="패스 42797" d="M285.235,72.511c.33,16.673-7.764,28.244-23.831,33.677-25.043,8.458-48.664,5.35-70.594-9.45l4.683-4.622a70.843,70.843,0,0,0,8.821,5.35c16.915,7.677,34.343,9.515,52.284,4.017a56.785,56.785,0,0,0,7.554-2.838,25.768,25.768,0,0,0,7.793-5.56,23.271,23.271,0,0,0,4.954-7.158,22.554,22.554,0,0,0,2.023-7.432l.033-.056a31.585,31.585,0,0,0,.233-4.735c-.06-.783-.074-7.428-2.632-12.177-2.013-3.742-5.27-6.113-7.014-7.6-2.455-2.1-6.077-3.342-9.162-4.338a58.417,58.417,0,0,0-9.786-2.144c-1.328-.181-4.227-.392-4.227-.392l-18.425-.876v-.033A32.181,32.181,0,0,1,218.7,44.15c-5.555-2.232-9.421-7.731-8.668-13.649a1.73,1.73,0,0,0,.061-.335,8.78,8.78,0,0,1,2.778-5.075c5.35-4.954,12.175-6.4,19.333-6.854,9.18-.513,17.67-.485,26.4,2.778,3.323,1.272,7.158,3.2,10.6,4.833l-5.042,5.047s-1.24-.755-2.176-1.24c-11.538-5.89-23.472-6.254-35.611-4.106a20.191,20.191,0,0,0-5.648,2.144c-2.088,1.328-3.5,3.108-2.992,5.769s1.659,3.565,4.017,4.861c2.959,1.628,6.011,1.752,11.357,1.934,2.443.033,6.495-.088,9.725-.06a63.345,63.345,0,0,1,15.438,1.846,41.415,41.415,0,0,1,13.742,6.132c8.364,5.946,13.048,14.074,13.229,24.344" transform="translate(31.124 2.935)" fill="#3379f5"/>
        <path id="패스_42798" data-name="패스 42798" d="M198.029,35.074c.28,6.608,2.559,10.634,6.862,14.9a22.451,22.451,0,0,0,8.737,5.377,60.837,60.837,0,0,0,16.284,2.782c8.733.465,17.554.434,24.74,2.871a22.651,22.651,0,0,1,8.547,5.256c5.62,6.281,3.8,18.434-5.247,24.278-10.481,6.342-22.932,5.051-34.079,3.63A57.966,57.966,0,0,1,202.185,86l-.29.326-4.6,4.492c13.957,10.63,45.579,14.506,62.583,5.834A33.06,33.06,0,0,0,267.3,91.16a22.908,22.908,0,0,0,4.176-5.932,20.324,20.324,0,0,0,2.19-8.44,32.358,32.358,0,0,0-.53-5.983,17.569,17.569,0,0,0-5.174-9.4,46,46,0,0,0-4.157-3.509c-.485-.3-.969-.573-1.449-.848-7.069-3.923-14.772-4.231-22.6-4.473-7.521-.209-16.766-.648-22.475-2.987a30.008,30.008,0,0,1-7.642-4.352c-5.075-4.711-5.574-12.647-2.992-18.1,2.237-4.8,6.995-7.335,11.659-8.989a55.327,55.327,0,0,1,19.967-3.057,57.945,57.945,0,0,1,14.437,2.3A86.552,86.552,0,0,1,270.81,24.7l4.8-4.744v-.014a50.8,50.8,0,0,0-7.46-4.12A79.271,79.271,0,0,0,243.825,9.28a63.22,63.22,0,0,0-6.57-.288,66.368,66.368,0,0,0-12.781,1.147,78.651,78.651,0,0,0-9.963,2.567,27.394,27.394,0,0,0-12.768,9.469,17.378,17.378,0,0,0-3.373,8.052,34.3,34.3,0,0,0-.331,4.847" transform="translate(32.182 1.466)" fill="#3379f5"/>
        <path id="패스_42799" data-name="패스 42799" d="M238.5,36.812c-.279-.014-.559-.033-.839-.042.279.009.558.028.839.042" transform="translate(38.767 5.998)" fill="#3379f5"/>
        <path id="패스_42800" data-name="패스 42800" d="M227.893,37.122" transform="translate(37.173 6.055)" fill="#3379f5"/>
        <path id="패스_42801" data-name="패스 42801" d="M265.709,69.817c.149-.615.3-1.235.452-1.851-.154.62-.3,1.235-.452,1.851" transform="translate(43.342 11.086)" fill="#3379f5"/>
        <path id="패스_42802" data-name="패스 42802" d="M253.236,50.3l1.445.853Z" transform="translate(41.307 8.205)" fill="#3379f5"/>
        <path id="패스_42803" data-name="패스 42803" d="M206.405,84.61l-.051.07a50.144,50.144,0,0,0,6.211,3.435,71.013,71.013,0,0,0,41.529,1.84,17.238,17.238,0,0,0,4.348-2.591,11.35,11.35,0,0,0,4.176-6.048,12.06,12.06,0,0,0-.853-9.478,10.53,10.53,0,0,0-5.382-4.641c-1.081-.42-3.373-.983-3.373-.983A47.755,47.755,0,0,0,241.2,64.8a130.214,130.214,0,0,1-21.142-1.812,42.613,42.613,0,0,1-11.03-4.134,25.677,25.677,0,0,1-5.555-4.187,23.73,23.73,0,0,1-7.866-19.293,23.475,23.475,0,0,1,6.048-16c7.764-8.579,17.061-11.259,28.216-12.894a71.763,71.763,0,0,1,12.05-.247s2.894.019,4.543.2a70.363,70.363,0,0,1,32.517,11.608,9.348,9.348,0,0,0,.848.541l4.5-4.408a93.816,93.816,0,0,0-9.072-5.2C263.182,2.547,250.6.073,236.974.012c-10.3-.06-20.057,1.659-29.087,6.375-13.322,6.979-20.238,17.577-18.943,33.254,1.178,13.775,9.274,21.808,20.993,26.795,8.733,3.746,18.188,4.441,27.671,4.408a112.393,112.393,0,0,1,13.5.814,5.648,5.648,0,0,1,5.079,5.079c.368,4.823-1.468,6.854-6.025,7.88-12.9,2.9-25.09,1.542-37.383-3.323a16.048,16.048,0,0,1-1.947-1.006l-4.428,4.329" transform="translate(30.795 0.002)" fill="#3379f5"/>
        <path id="패스_42804" data-name="패스 42804" d="M91.4,2.186,56.967,71.447v39.418H50.556V69.91l.936-1.873L84.2,2.187Z" transform="translate(8.247 0.357)" fill="#3379f5"/>
        <path id="패스_42805" data-name="패스 42805" d="M101.107,2.186,66.7,71.392V110.87H60.267V69.91l.936-1.873L93.916,2.187Z" transform="translate(9.831 0.357)" fill="#3379f5"/>
        <rect id="사각형_738" data-name="사각형 738" width="6.436" height="108.679" transform="translate(117.744 2.544)" fill="#3379f5"/>
        <rect id="사각형_739" data-name="사각형 739" width="6.436" height="108.679" transform="translate(128.558 2.544)" fill="#3379f5"/>
        <rect id="사각형_740" data-name="사각형 740" width="6.436" height="108.679" transform="translate(139.376 2.544)" fill="#3379f5"/>
        <rect id="사각형_741" data-name="사각형 741" width="6.436" height="108.679" transform="translate(150.191 2.544)" fill="#3379f5"/>
        <rect id="사각형_742" data-name="사각형 742" width="52.019" height="6.436" transform="translate(156.628 2.542)" fill="#3379f5"/>
        <rect id="사각형_743" data-name="사각형 743" width="52.019" height="6.436" transform="translate(156.628 13.212)" fill="#3379f5"/>
        <rect id="사각형_744" data-name="사각형 744" width="52.019" height="6.436" transform="translate(156.628 23.883)" fill="#3379f5"/>
        <rect id="사각형_745" data-name="사각형 745" width="52.019" height="6.436" transform="translate(156.628 43.174)" fill="#3379f5"/>
        <rect id="사각형_746" data-name="사각형 746" width="52.019" height="6.436" transform="translate(156.628 53.894)" fill="#3379f5"/>
        <rect id="사각형_747" data-name="사각형 747" width="52.019" height="6.436" transform="translate(156.628 64.564)" fill="#3379f5"/>
        <rect id="사각형_748" data-name="사각형 748" width="52.019" height="6.436" transform="translate(156.628 83.401)" fill="#3379f5"/>
        <rect id="사각형_749" data-name="사각형 749" width="52.019" height="6.436" transform="translate(156.628 94.117)" fill="#3379f5"/>
        <rect id="사각형_750" data-name="사각형 750" width="52.019" height="6.436" transform="translate(156.628 104.79)" fill="#3379f5"/>
        <path id="패스_42806" data-name="패스 42806" d="M81.69,2.188c-6.921,13.947-27.866,56.049-34.428,69.26v39.418H40.826V69.911c.219-.448.7-1.459.936-1.874C49.419,52.59,66.627,18.064,74.5,2.187Z" transform="translate(6.659 0.357)" fill="#3379f5"/>
        <rect id="사각형_751" data-name="사각형 751" width="66.143" height="5.602" transform="translate(361.441 89.821)" fill="#3379f5"/>
        <rect id="사각형_752" data-name="사각형 752" width="66.143" height="5.602" transform="translate(361.441 98.983)" fill="#3379f5"/>
        <rect id="사각형_753" data-name="사각형 753" width="66.143" height="5.602" transform="translate(361.441 108.145)" fill="#3379f5"/>
        <rect id="사각형_754" data-name="사각형 754" width="75.719" height="5.602" transform="translate(440.477 71.516)" fill="#3379f5"/>
        <path id="패스_42807" data-name="패스 42807" d="M541.012,5.268l-1.367,5.6H501v-5.6Z" transform="translate(81.721 0.859)" fill="#3379f5"/>
        <path id="패스_42808" data-name="패스 42808" d="M538.229,8.775v.107l-.341,1.417h-.028Z" transform="translate(87.734 1.431)" fill="#3379f5"/>
        <path id="패스_42809" data-name="패스 42809" d="M538.961,12.416l-1.36,5.6H501v-5.6Z" transform="translate(81.722 2.025)" fill="#3379f5"/>
        <path id="패스_42810" data-name="패스 42810" d="M536.095,18.014l1.365-5.6.028.007-1.367,5.6Z" transform="translate(87.446 2.025)" fill="#3379f5"/>
        <path id="패스_42811" data-name="패스 42811" d="M536.937,19.558l-1.366,5.6H501v-5.6Z" transform="translate(81.722 3.19)" fill="#3379f5"/>
        <path id="패스_42812" data-name="패스 42812" d="M535.724,19.558l-1.366,5.6h-.028Z" transform="translate(87.159 3.19)" fill="#3379f5"/>
        <path id="패스_42813" data-name="패스 42813" d="M548.341,5.268l-26.45,107.608h-5.6L537.3,27.484l1.37-5.6h.023l.657-2.707,1.369-5.6.657-2.708h.023l.349-1.421,1.025-4.18Z" transform="translate(84.216 0.859)" fill="#3379f5"/>
        <path id="패스_42814" data-name="패스 42814" d="M537.276,25.158l1.4-5.6-1.365,5.6L516.3,110.549Z" transform="translate(84.217 3.19)" fill="#3379f5"/>
        <path id="패스_42815" data-name="패스 42815" d="M537.556,12.795l.685-2.707-.657,2.707-1.37,5.6-.657,2.708h-.023l.657-2.708Z" transform="translate(87.355 1.646)" fill="#3379f5"/>
        <path id="패스_42816" data-name="패스 42816" d="M539.253,5.268l-1.026,4.18-.34,1.421h-.028l.367-1.524,1-4.078Z" transform="translate(87.734 0.859)" fill="#3379f5"/>
        <path id="패스_42817" data-name="패스 42817" d="M538.669,19.558l-1.366,5.6L516.3,110.55l20.979-85.394Z" transform="translate(84.217 3.19)" fill="#3379f5"/>
        <path id="패스_42818" data-name="패스 42818" d="M538.239,10.086l-.658,2.708-1.365,5.6-.657,2.707h-.028l.657-2.707,1.365-5.6Z" transform="translate(87.354 1.645)" fill="#3379f5"/>
        <path id="패스_42819" data-name="패스 42819" d="M539.253,5.268l-1.026,4.18-.34,1.421h-.028l.367-1.524,1-4.078Z" transform="translate(87.734 0.859)" fill="#3379f5"/>
        <path id="패스_42820" data-name="패스 42820" d="M551.183,5.26h5.6L530.32,112.881h-5.6Z" transform="translate(85.591 0.858)" fill="#3379f5"/>
        <path id="패스_42821" data-name="패스 42821" d="M559.622,5.26h5.6L538.758,112.881h-5.6Z" transform="translate(86.967 0.858)" fill="#3379f5"/>
        <path id="패스_42822" data-name="패스 42822" d="M568.057,5.26h5.6L547.193,112.881h-5.6Z" transform="translate(88.343 0.858)" fill="#3379f5"/>
        <path id="패스_42823" data-name="패스 42823" d="M478.455,2.17h5.6l-29.7,119.668h-5.6Z" transform="translate(73.201 0.354)" fill="#3379f5"/>
        <path id="패스_42824" data-name="패스 42824" d="M486.33,2.17h5.6L462.238,121.839h-5.6Z" transform="translate(74.486 0.354)" fill="#3379f5"/>
        <path id="패스_42825" data-name="패스 42825" d="M494.206,2.17h5.6L470.114,121.838h-5.6Z" transform="translate(75.771 0.354)" fill="#3379f5"/>
        <rect id="사각형_755" data-name="사각형 755" width="5.602" height="19.087" transform="translate(494.164 50.012)" fill="#3379f5"/>
        <rect id="사각형_756" data-name="사각형 756" width="5.602" height="15.904" transform="translate(494.164 97.836)" fill="#3379f5"/>
        <path id="패스_42826" data-name="패스 42826" d="M413.174,5.26,384.31,68.23h-5.6L407.572,5.26Z" transform="translate(61.774 0.858)" fill="#3379f5"/>
        <path id="패스_42827" data-name="패스 42827" d="M421.923,5.26,393.06,68.23h-5.6L416.322,5.26Z" transform="translate(63.201 0.858)" fill="#3379f5"/>
        <path id="패스_42828" data-name="패스 42828" d="M430.673,5.26,401.809,68.231h-5.6L425.071,5.26Z" transform="translate(64.628 0.858)" fill="#3379f5"/>
        <path id="패스_42829" data-name="패스 42829" d="M439.422,5.26,410.558,68.23h-5.6L433.821,5.26Z" transform="translate(66.056 0.858)" fill="#3379f5"/>
        <rect id="사각형_757" data-name="사각형 757" width="5.602" height="19.087" transform="translate(504.495 50.012)" fill="#3379f5"/>
        <rect id="사각형_758" data-name="사각형 758" width="5.602" height="15.904" transform="translate(504.495 97.836)" fill="#3379f5"/>
        <rect id="사각형_759" data-name="사각형 759" width="75.719" height="5.602" transform="translate(440.477 80.666)" fill="#3379f5"/>
        <rect id="사각형_760" data-name="사각형 760" width="75.719" height="5.602" transform="translate(440.477 89.817)" fill="#3379f5"/>
        <path id="패스_42830" data-name="패스 42830" d="M366.534,50.135c-5.414,10.438-16.85,26.421-23.006,34.777H336.98c4.892-6.57,18.933-25.713,24.874-37.2a27.2,27.2,0,0,0,1.314-21.007c-1.445-3.942-4.628-7.176-9.492-9.571a34.592,34.592,0,0,0-16.749-3.863,82.2,82.2,0,0,0-21.9,2.525l-1.785-4.944c3.625-1.077,11.552-2.582,23.728-2.582,8.956,0,14.423,1.846,19.045,4.157,6.02,2.973,10.2,7.283,12.1,12.465a32.568,32.568,0,0,1-1.58,25.24" transform="translate(51.095 1.349)" fill="#3379f5"/>
        <path id="패스_42831" data-name="패스 42831" d="M378.336,50.906c-2.339,5.6-13.565,21.715-23.4,35.359h-6.5c11.016-15.2,23.337-33.149,25.4-38.449,1.752-4.487,1.745-11.141.814-16.85a30.338,30.338,0,0,0-4.52-12.1c-3.877-5.555-13.164-13.682-33.421-13.608-14.488.051-22.587,3.365-24.111,4.045l-1.761-4.968C313.579,3.154,322.178,0,336.717,0c26.473,0,36.492,11.025,40.011,19.479C377.7,21.8,384.04,37.2,378.336,50.9" transform="translate(50.704)" fill="#3379f5"/>
        <path id="패스_42832" data-name="패스 42832" d="M355.883,46.96c-2.871,6.729-16.911,26.263-24.507,36.674h-6.547c6.547-8.882,23.262-31.869,26.212-38.752,2.684-6.281,3.35-11.454,1.687-15.644a10.214,10.214,0,0,0-5.7-5.89c-3.322-1.421-8.468-1.944-13.993-1.944a61.845,61.845,0,0,0-15.373,1.682l-1.793-5a66.531,66.531,0,0,1,17.168-1.944,47.6,47.6,0,0,1,15.774,2.26,13.911,13.911,0,0,1,8.863,9.016c2.027,5.546,1.445,11.934-1.784,19.535" transform="translate(51.524 2.631)" fill="#3379f5"/>
        <path id="패스_42833" data-name="패스 42833" d="M342.656,49.825c-5.6,7.81-17.354,24.688-22.8,32.55h-6.412c3.627-5.261,18.4-26.557,24.95-35.625,5.155-7.176,5.913-10.834,5.653-12.647a5.088,5.088,0,0,0-3.285-4.129,29.238,29.238,0,0,0-10.1-.76,51.866,51.866,0,0,0-9.488,1.417l-1.766-4.968a54.556,54.556,0,0,1,10.914-1.71c4.944-.312,9.833.135,12.381,1.163a10.109,10.109,0,0,1,6.468,7.834l.079.368c.634,4.152-1.473,9.385-6.6,16.51" transform="translate(51.129 3.891)" fill="#3379f5"/>
        <line id="선_35" data-name="선 35" x1="1.762" y1="4.968" transform="translate(361.551 4.346)" fill="#3379f5"/>
        <line id="선_36" data-name="선 36" x1="1.79" y1="4.943" transform="translate(364.337 12.204)" fill="#3379f5"/>
        <line id="선_37" data-name="선 37" x1="1.79" y1="4.994" transform="translate(367.386 20.723)" fill="#3379f5"/>
        <path id="패스_42834" data-name="패스 42834" d="M318.579,25.411l1.761,4.968.233.634" transform="translate(51.966 4.145)" fill="#3379f5"/>
        <path id="패스_42835" data-name="패스 42835" d="M16.244,2.193H9.092L38.483,62.3l-.393.8L42.1,55.043Z" transform="translate(1.483 0.358)" fill="#3379f5"/>
        <path id="패스_42836" data-name="패스 42836" d="M25.464,2.193H18.306L42.4,51.411,46,44.164Z" transform="translate(2.986 0.358)" fill="#3379f5"/>
        <path id="패스_42837" data-name="패스 42837" d="M46.306,40.52,27.55,2.2h7.161L49.9,33.277l-3.593,7.287" transform="translate(4.494 0.358)" fill="#3379f5"/>
        <path id="패스_42838" data-name="패스 42838" d="M37.051,68.177s.4-.813,1.124-2.26L7.009,2.192c-.434.07-6.837-.224-7.009.3L36.147,76.422v-6.4Z" transform="translate(0 0.354)" fill="#3379f5"/>
        <path id="패스_42839" data-name="패스 42839" d="M31.078,66.009V99.087l.037-.119V66.086Z" transform="translate(5.069 10.767)" fill="#3379f5"/>
        <path id="패스_42840" data-name="패스 42840" d="M34.219,54.56c-.547,1.1-1.018,2.046-1.4,2.812l.006.014Z" transform="translate(5.354 8.9)" fill="#3379f5"/>
        <path id="패스_42841" data-name="패스 42841" d="M39.281,44.528l-.009-.019c-.626,1.258-1.228,2.473-1.805,3.63l.007.014Z" transform="translate(6.112 7.26)" fill="#3379f5"/>
        <path id="패스_42842" data-name="패스 42842" d="M43.934,35.153l0-.008-1.811,3.644.008.017Z" transform="translate(6.87 5.733)" fill="#3379f5"/>
        <path id="패스_42843" data-name="패스 42843" d="M65.043,2.2H64.8L55.316,21.247c-3.128,6.288-6.453,12.975-9.585,19.274l0,.008-1.807,3.653-.008-.017-3.6,7.247.008.019-1.807,3.625-.006-.013L34.5,63.1l-1.392,2.826-.006-.013-1.124,2.259-.9,1.841v6.4l.037.077v34.372h6.436V71.45l.9-1.841c3.956-7.939,9.125-18.346,14.456-29.086C59.722,26.8,66.8,12.542,71.952,2.189Z" transform="translate(5.069 0.357)" fill="#3379f5"/>
      </g>
      <g id="그룹_9365" data-name="그룹 9365" transform="translate(20.292 160.353)">
        <path id="패스_42783" data-name="패스 42783" d="M186.3,257.519a54.35,54.35,0,1,1,54.347-54.353v.006A54.41,54.41,0,0,1,186.3,257.519m0-102.826a48.476,48.476,0,1,0,48.473,48.479A48.476,48.476,0,0,0,186.3,154.693" transform="translate(-50.828 -148.819)" fill="#3379f5"/>
        <path id="패스_42784" data-name="패스 42784" d="M182.588,243.107a43.655,43.655,0,1,1,43.655-43.655v.006a43.7,43.7,0,0,1-43.655,43.649m0-81.434a37.784,37.784,0,1,0,37.779,37.788v0a37.824,37.824,0,0,0-37.779-37.787" transform="translate(-47.113 -145.105)" fill="#3379f5"/>
        <path id="패스_42785" data-name="패스 42785" d="M179.205,229.983a33.912,33.912,0,1,1,33.912-33.912v.006a33.95,33.95,0,0,1-33.912,33.906m0-61.952a28.037,28.037,0,1,0,28.037,28.044,28.036,28.036,0,0,0-28.037-28.044" transform="translate(-43.729 -141.723)" fill="#3379f5"/>
        <path id="패스_42786" data-name="패스 42786" d="M175.811,216.818a24.141,24.141,0,1,1,24.141-24.141v.006a24.166,24.166,0,0,1-24.141,24.135m0-42.408a18.27,18.27,0,1,0,18.267,18.273,18.27,18.27,0,0,0-18.267-18.273" transform="translate(-40.336 -138.328)" fill="#3379f5"/>
        <path id="패스_42787" data-name="패스 42787" d="M263.247,257.514a54.341,54.341,0,1,1,42.506-88.192l-4.6,3.659a48.492,48.492,0,1,0,.221,60.057L306,236.653a53.945,53.945,0,0,1-42.745,20.858" transform="translate(-9.885 -148.813)" fill="#3379f5"/>
        <path id="패스_42788" data-name="패스 42788" d="M252.772,216.805a24.135,24.135,0,1,1,19.764-37.922l-4.824,3.34a18.22,18.22,0,1,0,.11,20.821l4.843,3.326a24.125,24.125,0,0,1-19.888,10.435" transform="translate(0.59 -138.328)" fill="#3379f5"/>
        <path id="패스_42789" data-name="패스 42789" d="M259.539,243.113a43.652,43.652,0,1,1,34.422-70.475l-4.634,3.61a37.789,37.789,0,1,0,.178,46.164l4.665,3.573a43.315,43.315,0,0,1-34.625,17.125" transform="translate(-6.177 -145.099)" fill="#3379f5"/>
        <path id="패스_42790" data-name="패스 42790" d="M252.772,216.805a24.135,24.135,0,1,1,19.764-37.922l-4.824,3.34a18.22,18.22,0,1,0,.11,20.821l4.843,3.326a24.125,24.125,0,0,1-19.888,10.435" transform="translate(0.59 -138.328)" fill="#3379f5"/>
        <path id="패스_42791" data-name="패스 42791" d="M256.163,229.99a33.923,33.923,0,1,1,27.13-54.261l-4.7,3.524a28.052,28.052,0,1,0,.1,33.489l4.726,3.487a34.009,34.009,0,0,1-27.271,13.761" transform="translate(-2.799 -141.729)" fill="#3379f5"/>
        <path id="패스_42792" data-name="패스 42792" d="M252.772,216.805a24.135,24.135,0,1,1,19.764-37.922l-4.824,3.34a18.22,18.22,0,1,0,.11,20.821l4.843,3.326a24.125,24.125,0,0,1-19.888,10.435" transform="translate(0.59 -138.328)" fill="#3379f5"/>
        <rect id="사각형_714" data-name="사각형 714" width="5.856" height="101.536" transform="translate(336.674 3.572)" fill="#3379f5"/>
        <rect id="사각형_715" data-name="사각형 715" width="5.856" height="101.536" transform="translate(0 3.645)" fill="#3379f5"/>
        <rect id="사각형_716" data-name="사각형 716" width="5.856" height="101.536" transform="translate(10.104 3.645)" fill="#3379f5"/>
        <rect id="사각형_717" data-name="사각형 717" width="5.856" height="101.536" transform="translate(20.202 3.645)" fill="#3379f5"/>
        <rect id="사각형_718" data-name="사각형 718" width="5.856" height="101.536" transform="translate(30.304 3.645)" fill="#3379f5"/>
        <rect id="사각형_719" data-name="사각형 719" width="38.295" height="5.856" transform="translate(36.16 78.574)" fill="#3379f5"/>
        <rect id="사각형_720" data-name="사각형 720" width="38.295" height="5.856" transform="translate(36.16 88.956)" fill="#3379f5"/>
        <rect id="사각형_721" data-name="사각형 721" width="38.295" height="5.856" transform="translate(36.16 99.33)" fill="#3379f5"/>
        <rect id="사각형_722" data-name="사각형 722" width="5.856" height="101.536" transform="translate(326.257 3.572)" fill="#3379f5"/>
        <rect id="사각형_723" data-name="사각형 723" width="5.856" height="101.536" transform="translate(315.836 3.572)" fill="#3379f5"/>
        <rect id="사각형_724" data-name="사각형 724" width="5.856" height="101.536" transform="translate(305.421 3.572)" fill="#3379f5"/>
        <rect id="사각형_725" data-name="사각형 725" width="5.856" height="101.536" transform="translate(453.108 3.572)" fill="#3379f5"/>
        <rect id="사각형_726" data-name="사각형 726" width="48.369" height="5.856" transform="translate(458.965 3.572)" fill="#3379f5"/>
        <rect id="사각형_727" data-name="사각형 727" width="48.369" height="5.856" transform="translate(458.965 13.042)" fill="#3379f5"/>
        <rect id="사각형_728" data-name="사각형 728" width="48.369" height="5.856" transform="translate(458.965 22.516)" fill="#3379f5"/>
        <rect id="사각형_729" data-name="사각형 729" width="48.369" height="5.856" transform="translate(458.965 80.309)" fill="#3379f5"/>
        <rect id="사각형_730" data-name="사각형 730" width="48.369" height="5.856" transform="translate(458.965 89.784)" fill="#3379f5"/>
        <rect id="사각형_731" data-name="사각형 731" width="48.369" height="5.856" transform="translate(458.965 99.254)" fill="#3379f5"/>
        <rect id="사각형_732" data-name="사각형 732" width="46.349" height="5.856" transform="translate(458.965 41.943)" fill="#3379f5"/>
        <rect id="사각형_733" data-name="사각형 733" width="46.349" height="5.856" transform="translate(458.965 51.413)" fill="#3379f5"/>
        <rect id="사각형_734" data-name="사각형 734" width="46.349" height="5.856" transform="translate(458.965 60.883)" fill="#3379f5"/>
        <rect id="사각형_735" data-name="사각형 735" width="5.856" height="101.536" transform="translate(442.693 3.572)" fill="#3379f5"/>
        <rect id="사각형_736" data-name="사각형 736" width="5.856" height="101.536" transform="translate(432.276 3.572)" fill="#3379f5"/>
        <rect id="사각형_737" data-name="사각형 737" width="5.856" height="101.536" transform="translate(421.854 3.572)" fill="#3379f5"/>
        <path id="패스_42793" data-name="패스 42793" d="M335.007,255.132l-32.656-52.487L335,149.717l5,3.081-30.739,49.829,30.733,49.4Z" transform="translate(39.835 -148.342)" fill="#3379f5"/>
        <path id="패스_42794" data-name="패스 42794" d="M342.853,255.132,310.2,202.645l32.648-52.928,5,3.081-30.739,49.829,30.733,49.4Z" transform="translate(44.011 -148.342)" fill="#3379f5"/>
        <path id="패스_42795" data-name="패스 42795" d="M350.7,255.132l-32.65-52.487L350.7,149.717l5,3.081-30.75,49.829,30.733,49.4Z" transform="translate(48.188 -148.342)" fill="#3379f5"/>
        <path id="패스_42796" data-name="패스 42796" d="M358.546,255.132,325.89,202.645l32.648-52.928,5,3.081-30.746,49.829,30.739,49.4Z" transform="translate(52.36 -148.342)" fill="#3379f5"/>
        <path id="패스_42844" data-name="패스 42844" d="M487.1,227.172h-5.856L471.1,199.36h5.855Z" transform="translate(129.619 -121.926)" fill="#3379f5"/>
        <path id="패스_42845" data-name="패스 42845" d="M480.22,227.172h-5.862L464.211,199.36h5.856Z" transform="translate(125.955 -121.926)" fill="#3379f5"/>
        <path id="패스_42846" data-name="패스 42846" d="M473.336,227.172h-5.856L457.334,199.36h5.856Z" transform="translate(122.296 -121.926)" fill="#3379f5"/>
        <path id="패스_42847" data-name="패스 42847" d="M466.454,227.172H460.6L450.452,199.36h5.855Z" transform="translate(118.634 -121.926)" fill="#3379f5"/>
        <path id="패스_42848" data-name="패스 42848" d="M433.632,167.693v.037l-.037-.037Z" transform="translate(109.665 -138.778)" fill="#3379f5"/>
        <path id="패스_42849" data-name="패스 42849" d="M426.835,160.9v.037l-.037-.037Z" transform="translate(106.049 -142.394)" fill="#3379f5"/>
        <path id="패스_42850" data-name="패스 42850" d="M446.079,196.735h35a13.329,13.329,0,0,0,10.878-5.678,13.163,13.163,0,0,0-.51-15.737l-.394-.547a13.29,13.29,0,0,0-10.41-5.014H467.488v-.037H435.621l.043.037V245.9H429.79V163.884h50.854a15.316,15.316,0,0,1,2.309.153,19,19,0,0,1,12.687,7.089l.43.547a19.011,19.011,0,0,1-12.1,30.654l-37.9.306Z" transform="translate(107.641 -140.803)" fill="#3379f5"/>
        <path id="패스_42851" data-name="패스 42851" d="M482.863,173.968a9.417,9.417,0,0,0-5.831-3.217c-.116-.037-.276-.037-.392-.08H436.589v71.607h5.863V199.022l.009-11.029h33.514v-.127a9.3,9.3,0,0,0,5.949-2.389,8.184,8.184,0,0,0,.939-11.509m-4.8,7.127c-.032.028-.064.054-.1.078a3.766,3.766,0,0,1-2.433.859H455.374v.08H442.455l0-5.561H476a3.442,3.442,0,0,1,2.35,1.172,2.393,2.393,0,0,1-.293,3.372" transform="translate(111.258 -137.192)" fill="#3379f5"/>
        <path id="패스_42852" data-name="패스 42852" d="M449.707,216.352h39.032a29.923,29.923,0,0,0,4.892-1.129,30.949,30.949,0,0,0,15.627-11.08,28.318,28.318,0,0,0-1.135-35.159l-.706-.86a31.32,31.32,0,0,0-18.985-10.686c-.9-.153-1.8-.276-2.744-.355h-62.7v92.434h5.874V162.954l-.038-.037h55.588a25.628,25.628,0,0,1,18.481,8.961l.743.9a22.213,22.213,0,0,1,.9,27.873,25.7,25.7,0,0,1-16.211,9.827h-38.64Z" transform="translate(104.022 -144.424)" fill="#3379f5"/>
        <path id="패스_42853" data-name="패스 42853" d="M453.31,230.072h34.257a48.587,48.587,0,0,0,13.583-1.838,38.513,38.513,0,0,0,19.028-62.049l-1.062-1.215a44.079,44.079,0,0,0-27.285-14.29,32.788,32.788,0,0,0-3.83-.386H416.2V253.139h5.831V156.116h65.537c10.845.663,20.79,5.286,27.087,12.681l1.019,1.215a31.9,31.9,0,0,1,1.37,40.56c-6.691,8.924-16.868,13.62-29.475,13.62H453.316Z" transform="translate(100.413 -148.037)" fill="#3379f5"/>
      </g>
    </g>
  </g>
</svg>
