<svg xmlns="http://www.w3.org/2000/svg" xmlns:xlink="http://www.w3.org/1999/xlink" width="63" height="63" viewBox="0 0 63 63">
  <defs>
    <clipPath id="clip-path">
      <rect id="사각형_989" data-name="사각형 989" width="63" height="63" transform="translate(37 218)" fill="none"/>
    </clipPath>
    <linearGradient id="linear-gradient" x1="0.5" y1="0.001" x2="0.5" y2="1.003" gradientUnits="objectBoundingBox">
      <stop offset="0" stop-color="#ffdb64"/>
      <stop offset="1" stop-color="#fecb24"/>
    </linearGradient>
    <filter id="패스_42929" x="6.713" y="6.964" width="55.032" height="54.668" filterUnits="userSpaceOnUse">
      <feOffset dx="3" dy="3" input="SourceAlpha"/>
      <feGaussianBlur stdDeviation="6.5" result="blur"/>
      <feFlood flood-color="#fecb24" flood-opacity="0.502"/>
      <feComposite operator="in" in2="blur"/>
      <feComposite in="SourceGraphic"/>
    </filter>
  </defs>
  <g id="마스크_그룹_37" data-name="마스크 그룹 37" transform="translate(-37 -218)" clip-path="url(#clip-path)">
    <g id="그룹_9497" data-name="그룹 9497" transform="translate(53.855 234.881)">
      <rect id="사각형_827" data-name="사각형 827" width="29" height="29" rx="5" transform="translate(0.145 0.119)" fill="#fff5d3"/>
      <g transform="matrix(1, 0, 0, 1, -16.86, -16.88)" filter="url(#패스_42929)">
        <path id="패스_42929-2" data-name="패스 42929" d="M210.016,799.5a7.836,7.836,0,1,0,8.016,7.834A7.927,7.927,0,0,0,210.016,799.5Z" transform="translate(-178.79 -776.04)" fill="url(#linear-gradient)"/>
      </g>
      <g id="그룹_9481" data-name="그룹 9481" transform="translate(11.867 9.873)">
        <path id="패스_42933" data-name="패스 42933" d="M224.289,820.1a2.21,2.21,0,0,1-2.359-2.066H223a1.28,1.28,0,0,0,1.286,1.126V816.83l-.331-.088c-1.135-.312-1.837-.887-1.842-1.871a2.139,2.139,0,0,1,2.173-2.013v-.8h.565v.794A2.142,2.142,0,0,1,227.1,814.8h-1.043a1.188,1.188,0,0,0-1.2-1.018v2.193l.3.083c.9.219,2.032.711,2.037,1.988,0,1.126-.848,1.964-2.339,2.057v.78h-.565Zm0-4.279v-2.037c-.682.1-1.1.5-1.1,1.024C223.187,815.407,223.767,815.68,224.289,815.826Zm1.842,2.2c0-.6-.561-.848-1.277-1.048v2.183C225.6,819.071,226.126,818.648,226.131,818.029Z" transform="translate(-221.93 -812.054)" fill="#fff"/>
      </g>
    </g>
  </g>
</svg>
