<svg xmlns="http://www.w3.org/2000/svg" xmlns:xlink="http://www.w3.org/1999/xlink" width="64" height="63" viewBox="0 0 64 63">
  <defs>
    <clipPath id="clip-path">
      <rect id="사각형_985" data-name="사각형 985" width="64" height="63" transform="translate(41 185)" fill="none"/>
    </clipPath>
    <linearGradient id="linear-gradient" x1="0.5" y1="-0.014" x2="0.5" y2="0.976" gradientUnits="objectBoundingBox">
      <stop offset="0" stop-color="#f56555"/>
      <stop offset="1" stop-color="#eb4e3d"/>
    </linearGradient>
    <filter id="패스_42924" x="6.7" y="5.82" width="56.822" height="56.822" filterUnits="userSpaceOnUse">
      <feOffset dx="3" dy="3" input="SourceAlpha"/>
      <feGaussianBlur stdDeviation="6.5" result="blur"/>
      <feFlood flood-color="#eb4e3d" flood-opacity="0.502"/>
      <feComposite operator="in" in2="blur"/>
      <feComposite in="SourceGraphic"/>
    </filter>
  </defs>
  <g id="마스크_그룹_33" data-name="마스크 그룹 33" transform="translate(-41 -185)" clip-path="url(#clip-path)">
    <g id="그룹_9490" data-name="그룹 9490" transform="translate(54 196.782)">
      <rect id="사각형_827" data-name="사각형 827" width="38" height="39" rx="5" transform="translate(0 0.218)" fill="#fbdbd8"/>
      <g transform="matrix(1, 0, 0, 1, -13, -11.78)" filter="url(#패스_42924)">
        <path id="패스_42924-2" data-name="패스 42924" d="M525,625v17.822h17.822V625Zm13.651,9.991H534.82v3.83H533v-3.83h-3.831v-1.819H533v-3.831h1.819v3.831h3.831Z" transform="translate(-501.8 -602.68)" fill="url(#linear-gradient)"/>
      </g>
      <path id="패스_42928" data-name="패스 42928" d="M545.948,642.586h-3.831v3.83H540.3v-3.83h-3.831v-1.819H540.3v-3.831h1.819v3.831h3.831Z" transform="translate(-522.098 -622.057)" fill="#fff"/>
    </g>
  </g>
</svg>
